<svg width="20" height="20" viewBox="0 0 24 24" fill="none" xmlns="http://www.w3.org/2000/svg">
  <path d="M12.5 2.5c-1 0-2 .5-2.5 1.5L7 8H4c-1.5 0-2.5 1-2.5 2.5V13c0 .5.5 1 1 1s1-.5 1-1v-2.5c0-.5.5-1 1-1h3.5L12 6c.5-.5 1.5-.5 2 0L18 10c.5.5.5 1.5 0 2l-4 4c-.5.5-1.5.5-2 0l-4-4c-.5-.5-.5-1.5 0-2l1-1c.5-.5.5-1 0-1.5s-1-.5-1.5 0L6 8.5c-1 1-1 2.5 0 3.5l4 4c1 1 2.5 1 3.5 0l4-4c1-1 1-2.5 0-3.5l-4-4c-.5-1-1.5-1.5-2.5-1.5z" stroke="#C4D3ED" stroke-width="1.5" stroke-linecap="round" stroke-linejoin="round"/>
</svg>