<svg width="20" height="20" viewBox="0 0 24 24" fill="none" xmlns="http://www.w3.org/2000/svg">
  <path d="M12 2C6.48 2 2 6.48 2 12s4.48 10 10 10 10-4.48 10-10S17.52 2 12 2zm4.64 6.8c-.9 1.04-2.22 1.6-3.64 1.6s-2.74-.56-3.64-1.6L7.05 7.05C8.23 5.85 9.95 5 12 5s3.77.85 4.95 2.05L14.64 8.8zM12 19c-2.05 0-3.77-.85-4.95-2.05L9.36 15.2c.9 1.04 2.22 1.6 3.64 1.6s2.74-.56 3.64-1.6l2.31 1.75C18.77 18.15 17.05 19 12 19z" stroke="#C4D3ED" stroke-width="1.5"/>
  <rect x="10" y="10" width="4" height="4" stroke="#C4D3ED" stroke-width="1.5" opacity="0.5"/>
</svg>